<?xml version="1.0" encoding="UTF-8" standalone="no"?>
<!-- Created with Inkscape (http://www.inkscape.org/) -->

<svg
   xmlns:dc="http://purl.org/dc/elements/1.1/"
   xmlns:cc="http://creativecommons.org/ns#"
   xmlns:rdf="http://www.w3.org/1999/02/22-rdf-syntax-ns#"
   xmlns:svg="http://www.w3.org/2000/svg"
   xmlns="http://www.w3.org/2000/svg"
   xmlns:sodipodi="http://sodipodi.sourceforge.net/DTD/sodipodi-0.dtd"
   xmlns:inkscape="http://www.inkscape.org/namespaces/inkscape"
   width="22mm"
   height="22mm"
   viewBox="0 0 22 22"
   version="1.1"
   id="svg21561"
   inkscape:version="0.92.3 (2405546, 2018-03-11)"
   sodipodi:docname="cat_wel_svg_red.svg">
  <defs
     id="defs21555" />
  <sodipodi:namedview
     id="base"
     pagecolor="#ffffff"
     bordercolor="#666666"
     borderopacity="1.0"
     inkscape:pageopacity="0.0"
     inkscape:pageshadow="2"
     inkscape:zoom="5.6568543"
     inkscape:cx="20.363869"
     inkscape:cy="39.605056"
     inkscape:document-units="mm"
     inkscape:current-layer="layer1"
     showgrid="false"
     inkscape:window-width="1855"
     inkscape:window-height="1057"
     inkscape:window-x="57"
     inkscape:window-y="-8"
     inkscape:window-maximized="1"
     showguides="true"
     inkscape:guide-bbox="true">
    <sodipodi:guide
       position="1.1875244,21.999691"
       orientation="0,1"
       id="guide26082"
       inkscape:locked="false" />
    <sodipodi:guide
       position="0,22.106145"
       orientation="1,0"
       id="guide26084"
       inkscape:locked="false" />
    <sodipodi:guide
       position="13.080339,0"
       orientation="0,1"
       id="guide26088"
       inkscape:locked="false" />
    <sodipodi:guide
       position="21.999691,9.8908693"
       orientation="1,0"
       id="guide26090"
       inkscape:locked="false" />
  </sodipodi:namedview>
  <metadata
     id="metadata21558">
    <rdf:RDF>
      <cc:Work
         rdf:about="">
        <dc:format>image/svg+xml</dc:format>
        <dc:type
           rdf:resource="http://purl.org/dc/dcmitype/StillImage" />
        <dc:title></dc:title>
      </cc:Work>
    </rdf:RDF>
  </metadata>
  <g
     inkscape:label="Layer 1"
     inkscape:groupmode="layer"
     id="layer1"
     transform="translate(0,-275)">
    <path
       style="display:inline;opacity:1;fill:#e50000;fill-opacity:1;stroke:none;stroke-width:0.19104636px;stroke-linecap:butt;stroke-linejoin:miter;stroke-opacity:1"
       d="m 16.365621,275.95327 c -2.538,0.0248 -4.7876,1.70381 -5.1726,2.81688 -0.5601,-1.61918 -5.8610002,-4.23682 -8.9032803,-1.54864 -3.6056,3.1859 -2.43479996,7.40869 -0.043,9.84951 l 1.0552001,1.07699 c -0.8251001,2.02311 0.52508,2.16647 1.5827799,1.6613 -0.6369,1.70021 0.3139001,2.15436 1.5680002,1.47158 -0.6778001,1.41524 -0.1203002,2.42375 1.5198,1.4473 -0.4602001,1.14373 -0.3591002,2.43617 1.5920994,1.51979 1.1003007,1.41372 3.8864007,3.35404 4.5352007,-0.28944 1.6754,0.32596 2.0935,-1.23734 2.0263,-1.92984 1.7178,0.17701 2.0987,-1.38479 2.0264,-2.07461 2.0178,0.34363 2.4771,-2.11097 1.5439,-3.08783 2.8039,-1.34986 3.2687,-7.27972 0.1613,-9.713 -1.1248,-0.88074 -2.338,-1.21125 -3.4917,-1.19999 z m -10.3715003,1.29687 c 1.4407002,0.009 2.8643006,0.69383 4.2144003,1.74132 l -5.1141003,5.11421 c -0.6386999,0.75642 0.1503,2.22646 1.4956001,1.56802 l 2.3882995,-1.9058 c 2.4437007,-1.90905 4.5360007,-1.74155 6.2720007,0.53077 l 2.9189,2.82242 c 1.0841,0.63833 0.943,2.67824 -0.8684,1.25443 l -1.0614,-0.96499 c -0.7521,-0.38786 -1.3524,0.0365 -0.9167,0.86844 l 1.3509,1.27858 c 0.8122,1.01085 -0.2967,1.72618 -1.1097,1.08547 l -1.3268,-1.3268 c -0.5196,-0.52242 -1.5888,0.0557 -0.9648,0.79615 l 1.3991,1.49562 c 0.731,0.66841 -0.1831,1.67037 -1.0856,1.06142 l -1.3027,-1.3268 c -0.9102,-0.4642 -1.3816,0.27679 -0.8924,0.89259 l 1.375,1.35086 c 0.2856,0.20425 0.4575,1.87003 -1.0856,1.1338 l -1.3268,-1.25441 c 0.6077,-1.55035 -0.2081,-2.26773 -1.3978007,-1.66761 -0.03,0.0221 -0.062,0.0396 -0.098,0.0514 0.033,-0.0183 0.065,-0.0351 0.098,-0.0514 0.5626,-0.41808 0.063,-2.55266 -1.5934995,-1.4202 0.4664001,-0.54989 0.2921,-2.52285 -1.568,-1.47147 0.6799001,-1.1249 0.071,-2.47118 -1.6645001,-1.49564 -1.4374799,-1.30887 -2.83748,-2.39242 -2.89478,-6.0549 0.3195,-1.63808 1.0201,-3.17098 3.06368,-3.78741 0.5655,-0.22196 1.1318999,-0.32168 1.6957,-0.31807 z"
       id="path4814-9-5-2-6"
       inkscape:connector-curvature="0"
       inkscape:export-filename="C:\Users\funfu\Documents\0_Boardgame\Board-Game-USA\images\sq\cat_wel_sq.png"
       inkscape:export-xdpi="96"
       inkscape:export-ydpi="96" />
  </g>
</svg>
