<?xml version="1.0" encoding="UTF-8" standalone="no"?>
<!-- Created with Inkscape (http://www.inkscape.org/) -->

<svg
   xmlns:dc="http://purl.org/dc/elements/1.1/"
   xmlns:cc="http://creativecommons.org/ns#"
   xmlns:rdf="http://www.w3.org/1999/02/22-rdf-syntax-ns#"
   xmlns:svg="http://www.w3.org/2000/svg"
   xmlns="http://www.w3.org/2000/svg"
   xmlns:sodipodi="http://sodipodi.sourceforge.net/DTD/sodipodi-0.dtd"
   xmlns:inkscape="http://www.inkscape.org/namespaces/inkscape"
   width="22mm"
   height="22mm"
   viewBox="0 0 22 22"
   version="1.1"
   id="svg21561"
   inkscape:version="0.92.3 (2405546, 2018-03-11)"
   sodipodi:docname="cat_tra_svg_red.svg">
  <defs
     id="defs21555" />
  <sodipodi:namedview
     id="base"
     pagecolor="#ffffff"
     bordercolor="#666666"
     borderopacity="1.0"
     inkscape:pageopacity="0.0"
     inkscape:pageshadow="2"
     inkscape:zoom="5.6568543"
     inkscape:cx="20.363869"
     inkscape:cy="39.605056"
     inkscape:document-units="mm"
     inkscape:current-layer="layer1"
     showgrid="false"
     inkscape:window-width="1240"
     inkscape:window-height="1057"
     inkscape:window-x="672"
     inkscape:window-y="0"
     inkscape:window-maximized="0"
     showguides="true"
     inkscape:guide-bbox="true">
    <sodipodi:guide
       position="1.1875244,21.999691"
       orientation="0,1"
       id="guide26082"
       inkscape:locked="false" />
    <sodipodi:guide
       position="0,22.106145"
       orientation="1,0"
       id="guide26084"
       inkscape:locked="false" />
    <sodipodi:guide
       position="13.080339,0"
       orientation="0,1"
       id="guide26088"
       inkscape:locked="false" />
    <sodipodi:guide
       position="21.999691,9.8908693"
       orientation="1,0"
       id="guide26090"
       inkscape:locked="false" />
  </sodipodi:namedview>
  <metadata
     id="metadata21558">
    <rdf:RDF>
      <cc:Work
         rdf:about="">
        <dc:format>image/svg+xml</dc:format>
        <dc:type
           rdf:resource="http://purl.org/dc/dcmitype/StillImage" />
        <dc:title></dc:title>
      </cc:Work>
    </rdf:RDF>
  </metadata>
  <g
     inkscape:label="Layer 1"
     inkscape:groupmode="layer"
     id="layer1"
     transform="translate(0,-275)">
    <path
       inkscape:connector-curvature="0"
       id="path4990-9-7-2"
       d="m 2.5013545,276.63279 3.6724309,3.40632 3.5659858,-3.45954 2.8208518,2.44829 -3.5127615,3.72565 9.8995995,9.95282 -2.714407,2.71441 -9.9528198,-10.05927 -3.5659859,3.61921 -2.60795789,-2.66118 3.35309209,-3.51276 -3.45953706309,-3.67243 z"
       style="fill:#e50000;fill-opacity:1;stroke:none;stroke-width:0.21075486px;stroke-linecap:butt;stroke-linejoin:miter;stroke-opacity:1" />
    <path
       sodipodi:nodetypes="cccccc"
       inkscape:connector-curvature="0"
       id="path4996-9-6-9"
       d="M 4.5238515,294.51594 19.320024,279.82621 c -0.744705,-2.66064 1.630906,-1.34997 2.448288,-2.02249 -0.37789,1.0352 0.203057,3.428 -1.969276,2.39506 0.159658,-0.21289 -14.6897236,14.95584 -14.6897236,14.95584 -0.2655414,0.26105 -0.9460226,-0.14521 -0.5854609,-0.63868 z"
       style="fill:#e50000;fill-opacity:1;stroke:#e50000;stroke-width:0.21075486px;stroke-linecap:butt;stroke-linejoin:miter;stroke-opacity:1" />
    <path
       sodipodi:nodetypes="cscccc"
       inkscape:connector-curvature="0"
       id="path4998-1-4-3"
       d="m 15.487924,280.43829 1.064472,1.03786 c 0.249204,0.24297 0.04417,0.54998 0.239487,0.82496 l -1.357203,1.17092 c -0.894246,0.0314 -1.862309,-0.82078 -0.878192,-2.07572 z"
       style="fill:#e50000;fill-opacity:1;stroke:#e50000;stroke-width:0.21075486px;stroke-linecap:butt;stroke-linejoin:miter;stroke-opacity:1" />
    <path
       sodipodi:nodetypes="cscccc"
       inkscape:connector-curvature="0"
       id="path4998-9-3-2-59"
       d="m 19.138911,284.02989 -1.037861,-1.06448 c -0.242971,-0.2492 -0.549979,-0.0442 -0.824967,-0.23948 l -1.170918,1.3572 c -0.03136,0.89425 0.820786,1.86231 2.075721,0.87819 z"
       style="fill:#e50000;fill-opacity:1;stroke:#e50000;stroke-width:0.21075486px;stroke-linecap:butt;stroke-linejoin:miter;stroke-opacity:1" />
    <path
       sodipodi:nodetypes="cscccc"
       inkscape:connector-curvature="0"
       id="path4998-2-3-2-0"
       d="m 17.611434,278.28608 1.064473,1.03786 c 0.249204,0.24297 0.04417,0.54998 0.239487,0.82497 l -1.357204,1.17092 c -0.894246,0.0314 -1.862309,-0.82079 -0.878191,-2.07572 z"
       style="fill:#e50000;fill-opacity:1;stroke:#e50000;stroke-width:0.21075486px;stroke-linecap:butt;stroke-linejoin:miter;stroke-opacity:1" />
    <path
       sodipodi:nodetypes="cscccc"
       inkscape:connector-curvature="0"
       id="path4998-9-4-3-3-2"
       d="m 21.262421,281.87768 -1.037861,-1.06447 c -0.242971,-0.24921 -0.549979,-0.0442 -0.824967,-0.23949 l -1.170918,1.3572 c -0.03136,0.89425 0.820786,1.86231 2.075722,0.8782 z"
       style="fill:#e50000;fill-opacity:1;stroke:#e50000;stroke-width:0.21075486px;stroke-linecap:butt;stroke-linejoin:miter;stroke-opacity:1" />
    <path
       sodipodi:nodetypes="cscccc"
       inkscape:connector-curvature="0"
       id="path4998-7-8-2-4"
       d="m 13.273706,282.65042 1.064472,1.03786 c 0.249204,0.24297 0.04417,0.54998 0.239487,0.82497 l -1.357203,1.17092 c -0.894246,0.0314 -1.862309,-0.82079 -0.878192,-2.07572 z"
       style="fill:#e50000;fill-opacity:1;stroke:#e50000;stroke-width:0.21075486px;stroke-linecap:butt;stroke-linejoin:miter;stroke-opacity:1" />
    <path
       sodipodi:nodetypes="cscccc"
       inkscape:connector-curvature="0"
       id="path4998-9-2-8-1-1"
       d="m 16.924693,286.24202 -1.037861,-1.06447 c -0.242971,-0.24921 -0.549979,-0.0442 -0.824967,-0.23949 l -1.170918,1.35721 c -0.03136,0.89424 0.820786,1.8623 2.075721,0.87819 z"
       style="fill:#e50000;fill-opacity:1;stroke:#e50000;stroke-width:0.21075486px;stroke-linecap:butt;stroke-linejoin:miter;stroke-opacity:1" />
  </g>
</svg>
