<?xml version="1.0" encoding="UTF-8" standalone="no"?>
<!-- Created with Inkscape (http://www.inkscape.org/) -->

<svg
   xmlns:dc="http://purl.org/dc/elements/1.1/"
   xmlns:cc="http://creativecommons.org/ns#"
   xmlns:rdf="http://www.w3.org/1999/02/22-rdf-syntax-ns#"
   xmlns:svg="http://www.w3.org/2000/svg"
   xmlns="http://www.w3.org/2000/svg"
   xmlns:sodipodi="http://sodipodi.sourceforge.net/DTD/sodipodi-0.dtd"
   xmlns:inkscape="http://www.inkscape.org/namespaces/inkscape"
   width="22mm"
   height="22mm"
   viewBox="0 0 22 22"
   version="1.1"
   id="svg21561"
   inkscape:version="0.92.3 (2405546, 2018-03-11)"
   sodipodi:docname="cat_nat_svg.svg">
  <defs
     id="defs21555" />
  <sodipodi:namedview
     id="base"
     pagecolor="#ffffff"
     bordercolor="#666666"
     borderopacity="1.0"
     inkscape:pageopacity="0.0"
     inkscape:pageshadow="2"
     inkscape:zoom="5.6568543"
     inkscape:cx="50.504295"
     inkscape:cy="39.605056"
     inkscape:document-units="mm"
     inkscape:current-layer="layer1"
     showgrid="false"
     inkscape:window-width="1855"
     inkscape:window-height="1057"
     inkscape:window-x="57"
     inkscape:window-y="-8"
     inkscape:window-maximized="1"
     showguides="true"
     inkscape:guide-bbox="true">
    <sodipodi:guide
       position="1.1875244,21.999691"
       orientation="0,1"
       id="guide26082"
       inkscape:locked="false" />
    <sodipodi:guide
       position="0,22.106145"
       orientation="1,0"
       id="guide26084"
       inkscape:locked="false" />
    <sodipodi:guide
       position="13.080339,0"
       orientation="0,1"
       id="guide26088"
       inkscape:locked="false" />
    <sodipodi:guide
       position="21.999691,9.8908693"
       orientation="1,0"
       id="guide26090"
       inkscape:locked="false" />
  </sodipodi:namedview>
  <metadata
     id="metadata21558">
    <rdf:RDF>
      <cc:Work
         rdf:about="">
        <dc:format>image/svg+xml</dc:format>
        <dc:type
           rdf:resource="http://purl.org/dc/dcmitype/StillImage" />
        <dc:title></dc:title>
      </cc:Work>
    </rdf:RDF>
  </metadata>
  <g
     inkscape:label="Layer 1"
     inkscape:groupmode="layer"
     id="layer1"
     transform="translate(0,-275)">
    <g
       style="display:inline;opacity:1"
       id="g5817-8-61"
       transform="matrix(0.12891482,0,0,0.20371381,-145.70532,347.16392)"
       inkscape:export-filename="C:\Users\funfu\Documents\0_Boardgame\Board-Game-USA\images\sq\cat_nat_sq.png"
       inkscape:export-xdpi="96"
       inkscape:export-ydpi="96">
      <path
         inkscape:connector-curvature="0"
         id="path5395-0-6-7-9-8-9"
         d="m 1142.7424,-354.15847 h -11.9062 v 12.47322 l 156.8601,95.43898 h 12.2842 v -12.47321 z"
         style="display:inline;fill:#000000;fill-opacity:0;stroke:none;stroke-width:0.26458332px;stroke-linecap:butt;stroke-linejoin:miter;stroke-opacity:1" />
      <path
         inkscape:connector-curvature="0"
         id="path5395-6-5-8-3-3"
         d="m 1288.0075,-354.24091 h 11.9063 v 12.47321 l -156.8601,95.43898 h -12.2843 v -12.47321 z"
         style="display:inline;fill:#000000;fill-opacity:0;stroke:none;stroke-width:0.26458332px;stroke-linecap:butt;stroke-linejoin:miter;stroke-opacity:1" />
      <path
         inkscape:connector-curvature="0"
         id="path5171-9-2-5-1-2"
         d="m 1130.8844,-338.48929 61.4719,37.95227 -61.7392,38.48681 z"
         style="display:inline;fill:#007ae5;fill-opacity:1;stroke:none;stroke-width:0.26458332px;stroke-linecap:butt;stroke-linejoin:miter;stroke-opacity:1" />
      <path
         inkscape:connector-curvature="0"
         id="path5171-6-5-4-6-3-3"
         d="m 1300.2585,-338.48928 -61.472,37.95226 61.7392,38.48681 z"
         style="display:inline;fill:#007ae5;fill-opacity:1;stroke:none;stroke-width:0.26458332px;stroke-linecap:butt;stroke-linejoin:miter;stroke-opacity:1" />
      <path
         inkscape:connector-curvature="0"
         id="path5188-5-1-0-0-4"
         d="m 1149.7269,-354.12399 h 131.4965 l -65.7483,39.82315 z"
         style="display:inline;fill:#007ae5;fill-opacity:1;stroke:none;stroke-width:0.26458332px;stroke-linecap:butt;stroke-linejoin:miter;stroke-opacity:1" />
      <path
         inkscape:connector-curvature="0"
         id="path5188-3-8-0-7-8-94"
         d="m 1149.7269,-246.53683 h 131.4965 l -65.7483,-39.82316 z"
         style="display:inline;fill:#007ae5;fill-opacity:1;stroke:none;stroke-width:0.26458332px;stroke-linecap:butt;stroke-linejoin:miter;stroke-opacity:1" />
      <path
         inkscape:connector-curvature="0"
         id="path5210-3-0-0-6-2"
         d="m 1213.9049,-301.80599 c 0.067,-0.13364 1.4366,-4.51018 1.4366,-4.51018 l 1.3698,4.47677 4.6772,0.0334 -3.6082,2.80633 1.3364,4.67722 -3.7752,-2.77292 -3.6415,2.77292 1.3029,-4.57699 -3.6416,-2.83974 z"
         style="fill:#007ae5;fill-opacity:1;stroke:#007ae5;stroke-width:0.26458332px;stroke-linecap:butt;stroke-linejoin:miter;stroke-opacity:1" />
      <path
         inkscape:connector-curvature="0"
         id="path5210-8-1-5-8-0-0"
         d="m 1236.9962,-316.34962 c 0.067,-0.13364 1.4366,-4.51018 1.4366,-4.51018 l 1.3698,4.47677 4.6772,0.0334 -3.6082,2.80633 1.3364,4.67721 -3.7752,-2.77291 -3.6415,2.77291 1.3029,-4.57698 -3.6415,-2.83974 z"
         style="display:inline;fill:#007ae5;fill-opacity:1;stroke:#007ae5;stroke-width:0.26458332px;stroke-linecap:butt;stroke-linejoin:miter;stroke-opacity:1" />
      <path
         inkscape:connector-curvature="0"
         id="path5210-4-0-8-7-1-7"
         d="m 1261.0424,-331.03799 c 0.067,-0.13363 1.4366,-4.51017 1.4366,-4.51017 l 1.3697,4.47677 4.6772,0.0334 -3.6081,2.80633 1.3364,4.67721 -3.7752,-2.77292 -3.6416,2.77292 1.303,-4.57699 -3.6416,-2.83974 z"
         style="display:inline;fill:#007ae5;fill-opacity:1;stroke:#007ae5;stroke-width:0.26458332px;stroke-linecap:butt;stroke-linejoin:miter;stroke-opacity:1" />
      <path
         inkscape:connector-curvature="0"
         id="path5210-42-0-4-8-5-61"
         d="m 1284.3616,-344.46828 c 0.067,-0.13363 1.4366,-4.51017 1.4366,-4.51017 l 1.3698,4.47677 4.6772,0.0334 -3.6081,2.80633 1.3363,4.67721 -3.7752,-2.77292 -3.6415,2.77292 1.3029,-4.57699 -3.6415,-2.83974 z"
         style="display:inline;fill:#007ae5;fill-opacity:1;stroke:#007ae5;stroke-width:0.26458332px;stroke-linecap:butt;stroke-linejoin:miter;stroke-opacity:1" />
      <path
         inkscape:connector-curvature="0"
         id="path5210-8-2-3-9-3-4-4"
         d="m 1193.7242,-316.51093 c -0.067,-0.13364 -1.4365,-4.51018 -1.4365,-4.51018 l -1.3698,4.47677 -4.6772,0.0334 3.6081,2.80633 -1.3363,4.67722 3.7752,-2.77292 3.6415,2.77292 -1.3029,-4.57699 3.6415,-2.83974 z"
         style="display:inline;fill:#007ae5;fill-opacity:1;stroke:#007ae5;stroke-width:0.26458332px;stroke-linecap:butt;stroke-linejoin:miter;stroke-opacity:1" />
      <path
         inkscape:connector-curvature="0"
         id="path5210-4-8-06-3-1-1-81"
         d="m 1169.6781,-331.1993 c -0.067,-0.13363 -1.4366,-4.51017 -1.4366,-4.51017 l -1.3697,4.47677 -4.6773,0.0334 3.6082,2.80633 -1.3364,4.67721 3.7752,-2.77292 3.6416,2.77292 -1.303,-4.57699 3.6416,-2.83974 z"
         style="display:inline;fill:#007ae5;fill-opacity:1;stroke:#007ae5;stroke-width:0.26458332px;stroke-linecap:butt;stroke-linejoin:miter;stroke-opacity:1" />
      <path
         inkscape:connector-curvature="0"
         id="path5210-42-1-6-2-7-1-6"
         d="m 1146.3588,-344.6296 c -0.067,-0.13363 -1.4365,-4.51017 -1.4365,-4.51017 l -1.3698,4.47677 -4.6772,0.0334 3.6081,2.80633 -1.3363,4.67722 3.7752,-2.77292 3.6415,2.77292 -1.3029,-4.577 3.6415,-2.83973 z"
         style="display:inline;fill:#007ae5;fill-opacity:1;stroke:#007ae5;stroke-width:0.26458332px;stroke-linecap:butt;stroke-linejoin:miter;stroke-opacity:1" />
      <path
         inkscape:connector-curvature="0"
         id="path5210-8-24-7-6-7-2-1"
         d="m 1287.2686,-259.18161 c -0.067,-0.13364 -1.4366,-4.51018 -1.4366,-4.51018 l -1.3698,4.47677 -4.6772,0.0334 3.6082,2.80633 -1.3364,4.67721 3.7752,-2.77291 3.6415,2.77291 -1.3029,-4.57698 3.6415,-2.83974 z"
         style="display:inline;fill:#007ae5;fill-opacity:1;stroke:#007ae5;stroke-width:0.26458332px;stroke-linecap:butt;stroke-linejoin:miter;stroke-opacity:1" />
      <path
         inkscape:connector-curvature="0"
         id="path5210-4-80-1-9-4-1-0"
         d="m 1263.2224,-273.86998 c -0.067,-0.13363 -1.4366,-4.51017 -1.4366,-4.51017 l -1.3697,4.47677 -4.6772,0.0334 3.6081,2.80633 -1.3364,4.67721 3.7752,-2.77292 3.6416,2.77292 -1.303,-4.57699 3.6416,-2.83974 z"
         style="display:inline;fill:#007ae5;fill-opacity:1;stroke:#007ae5;stroke-width:0.26458332px;stroke-linecap:butt;stroke-linejoin:miter;stroke-opacity:1" />
      <path
         inkscape:connector-curvature="0"
         id="path5210-42-4-3-6-6-3-6"
         d="m 1239.9031,-287.30027 c -0.067,-0.13363 -1.4365,-4.51017 -1.4365,-4.51017 l -1.3698,4.47677 -4.6772,0.0334 3.6081,2.80633 -1.3363,4.67721 3.7752,-2.77292 3.6415,2.77292 -1.3029,-4.57699 3.6415,-2.83974 z"
         style="display:inline;fill:#007ae5;fill-opacity:1;stroke:#007ae5;stroke-width:0.26458332px;stroke-linecap:butt;stroke-linejoin:miter;stroke-opacity:1" />
      <path
         inkscape:connector-curvature="0"
         id="path5210-8-2-6-8-8-0-9-2"
         d="m 1143.4927,-259.35439 c 0.067,-0.13364 1.4366,-4.51018 1.4366,-4.51018 l 1.3698,4.47677 4.6772,0.0334 -3.6081,2.80634 1.3363,4.67721 -3.7752,-2.77292 -3.6415,2.77292 1.3029,-4.57698 -3.6415,-2.83975 z"
         style="display:inline;fill:#007ae5;fill-opacity:1;stroke:#007ae5;stroke-width:0.26458332px;stroke-linecap:butt;stroke-linejoin:miter;stroke-opacity:1" />
      <path
         inkscape:connector-curvature="0"
         id="path5210-4-8-0-1-8-4-4-9"
         d="m 1167.5389,-274.04276 c 0.067,-0.13363 1.4366,-4.51017 1.4366,-4.51017 l 1.3697,4.47677 4.6773,0.0334 -3.6082,2.80633 1.3364,4.67721 -3.7752,-2.77292 -3.6416,2.77292 1.303,-4.57699 -3.6416,-2.83974 z"
         style="display:inline;fill:#007ae5;fill-opacity:1;stroke:#007ae5;stroke-width:0.26458332px;stroke-linecap:butt;stroke-linejoin:miter;stroke-opacity:1" />
      <path
         inkscape:connector-curvature="0"
         id="path5210-42-1-8-3-8-8-5-4"
         d="m 1190.8581,-287.47306 c 0.067,-0.13363 1.4366,-4.51017 1.4366,-4.51017 l 1.3698,4.47677 4.6772,0.0334 -3.6081,2.80633 1.3363,4.67722 -3.7752,-2.77292 -3.6415,2.77292 1.3029,-4.577 -3.6415,-2.83973 z"
         style="display:inline;fill:#007ae5;fill-opacity:1;stroke:#007ae5;stroke-width:0.26458332px;stroke-linecap:butt;stroke-linejoin:miter;stroke-opacity:1" />
    </g>
    <rect
       style="opacity:1;fill:#4ba556;fill-opacity:0;stroke:none;stroke-width:0.76384151;stroke-linecap:round;stroke-linejoin:round;stroke-miterlimit:4;stroke-dasharray:none;stroke-dashoffset:0;stroke-opacity:1;paint-order:normal"
       id="rect26086"
       width="21.999691"
       height="21.999706"
       x="0"
       y="275.00031" />
  </g>
</svg>
