<?xml version="1.0" encoding="UTF-8" standalone="no"?>
<!-- Created with Inkscape (http://www.inkscape.org/) -->

<svg
   xmlns:dc="http://purl.org/dc/elements/1.1/"
   xmlns:cc="http://creativecommons.org/ns#"
   xmlns:rdf="http://www.w3.org/1999/02/22-rdf-syntax-ns#"
   xmlns:svg="http://www.w3.org/2000/svg"
   xmlns="http://www.w3.org/2000/svg"
   xmlns:sodipodi="http://sodipodi.sourceforge.net/DTD/sodipodi-0.dtd"
   xmlns:inkscape="http://www.inkscape.org/namespaces/inkscape"
   width="22mm"
   height="22mm"
   viewBox="0 0 22 22"
   version="1.1"
   id="svg21561"
   inkscape:version="0.92.3 (2405546, 2018-03-11)"
   sodipodi:docname="cat_tax_svg.svg">
  <defs
     id="defs21555" />
  <sodipodi:namedview
     id="base"
     pagecolor="#ffffff"
     bordercolor="#666666"
     borderopacity="1.0"
     inkscape:pageopacity="0.0"
     inkscape:pageshadow="2"
     inkscape:zoom="5.6568543"
     inkscape:cx="51.29979"
     inkscape:cy="39.605056"
     inkscape:document-units="mm"
     inkscape:current-layer="layer1"
     showgrid="false"
     inkscape:window-width="1240"
     inkscape:window-height="1057"
     inkscape:window-x="672"
     inkscape:window-y="0"
     inkscape:window-maximized="0"
     showguides="true"
     inkscape:guide-bbox="true">
    <sodipodi:guide
       position="1.1875244,21.999691"
       orientation="0,1"
       id="guide26082"
       inkscape:locked="false" />
    <sodipodi:guide
       position="0,22.106145"
       orientation="1,0"
       id="guide26084"
       inkscape:locked="false" />
    <sodipodi:guide
       position="13.080339,0"
       orientation="0,1"
       id="guide26088"
       inkscape:locked="false" />
    <sodipodi:guide
       position="21.999691,9.8908693"
       orientation="1,0"
       id="guide26090"
       inkscape:locked="false" />
  </sodipodi:namedview>
  <metadata
     id="metadata21558">
    <rdf:RDF>
      <cc:Work
         rdf:about="">
        <dc:format>image/svg+xml</dc:format>
        <dc:type
           rdf:resource="http://purl.org/dc/dcmitype/StillImage" />
        <dc:title></dc:title>
      </cc:Work>
    </rdf:RDF>
  </metadata>
  <g
     inkscape:label="Layer 1"
     inkscape:groupmode="layer"
     id="layer1"
     transform="translate(0,-275)">
    <path
       style="display:inline;opacity:1;fill:#007ae5;fill-opacity:1;stroke:#007ae5;stroke-width:0.20230858px;stroke-linecap:butt;stroke-linejoin:miter;stroke-opacity:1"
       d="m 10.995328,275.10194 c -0.9114,-0.0294 -1.2035004,0.95747 -1.6304003,1.05427 -0.8267001,0.18745 -0.6193001,-1.37694 -2.0436001,-0.86853 -1.5713001,0.56092 0.7042999,3.34064 1.0729,5.00687 -7.50400003,5.68788 -8.78209997,16.3471 2.6056004,16.60442 11.387799,-0.25732 10.109599,-10.91654 2.605599,-16.60442 0.3686,-1.66622 2.6442,-4.44595 1.0729,-5.00687 -1.4242,-0.50841 -1.1962,0.89026 -2.0436,0.86853 -0.5829,-0.0149 -0.579499,-1.03066 -1.639399,-1.05427 z m -2.4262003,10.83175 a 1.1502509,1.1502509 0 0 1 0.1896999,0.0178 1.1502509,1.1502509 0 0 1 0.9315001,1.32868 v 0.0223 a 1.1502509,1.1502509 0 0 1 -1.3423001,0.91175 1.1502509,1.1502509 0 0 1 -0.9182999,-1.3379 1.1502509,1.1502509 0 0 1 1.1435,-0.94265 z m 4.9258993,0.3374 c 0.4223,-0.003 0.7983,0.5881 0.375,1.01817 l -5.1897994,5.27196 c -0.6166001,0.62635 -1.4079,-0.172 -0.8216,-0.76686 l 5.2872994,-5.36442 c 0.109,-0.11056 0.2308,-0.158 0.3491,-0.15885 z m -0.2428,4.54968 a 1.1502509,1.1502509 0 0 1 0.1895,0.0196 1.1502509,1.1502509 0 0 1 0.9183,1.3379 1.1502509,1.1502509 0 0 1 -1.3332,0.92486 1.1502509,1.1502509 0 0 1 -0.931599,-1.32867 v -0.0224 a 1.1502509,1.1502509 0 0 1 1.152899,-0.93133 z"
       id="path4856-9-4-0"
       inkscape:connector-curvature="0"
       inkscape:export-filename="C:\Users\funfu\Documents\0_Boardgame\Board-Game-USA\images\sq\cat_tax_sq.png"
       inkscape:export-xdpi="96"
       inkscape:export-ydpi="96" />
  </g>
</svg>
