<?xml version="1.0" encoding="UTF-8" standalone="no"?>
<!-- Created with Inkscape (http://www.inkscape.org/) -->

<svg
   xmlns:dc="http://purl.org/dc/elements/1.1/"
   xmlns:cc="http://creativecommons.org/ns#"
   xmlns:rdf="http://www.w3.org/1999/02/22-rdf-syntax-ns#"
   xmlns:svg="http://www.w3.org/2000/svg"
   xmlns="http://www.w3.org/2000/svg"
   xmlns:sodipodi="http://sodipodi.sourceforge.net/DTD/sodipodi-0.dtd"
   xmlns:inkscape="http://www.inkscape.org/namespaces/inkscape"
   width="22mm"
   height="22mm"
   viewBox="0 0 22 22"
   version="1.1"
   id="svg21561"
   inkscape:version="0.92.3 (2405546, 2018-03-11)"
   sodipodi:docname="cat_tra_svg.svg">
  <defs
     id="defs21555" />
  <sodipodi:namedview
     id="base"
     pagecolor="#ffffff"
     bordercolor="#666666"
     borderopacity="1.0"
     inkscape:pageopacity="0.0"
     inkscape:pageshadow="2"
     inkscape:zoom="5.6568543"
     inkscape:cx="51.29979"
     inkscape:cy="39.605056"
     inkscape:document-units="mm"
     inkscape:current-layer="layer1"
     showgrid="false"
     inkscape:window-width="1240"
     inkscape:window-height="1057"
     inkscape:window-x="672"
     inkscape:window-y="0"
     inkscape:window-maximized="0"
     showguides="true"
     inkscape:guide-bbox="true">
    <sodipodi:guide
       position="1.1875244,21.999691"
       orientation="0,1"
       id="guide26082"
       inkscape:locked="false" />
    <sodipodi:guide
       position="0,22.106145"
       orientation="1,0"
       id="guide26084"
       inkscape:locked="false" />
    <sodipodi:guide
       position="13.080339,0"
       orientation="0,1"
       id="guide26088"
       inkscape:locked="false" />
    <sodipodi:guide
       position="21.999691,9.8908693"
       orientation="1,0"
       id="guide26090"
       inkscape:locked="false" />
  </sodipodi:namedview>
  <metadata
     id="metadata21558">
    <rdf:RDF>
      <cc:Work
         rdf:about="">
        <dc:format>image/svg+xml</dc:format>
        <dc:type
           rdf:resource="http://purl.org/dc/dcmitype/StillImage" />
        <dc:title></dc:title>
      </cc:Work>
    </rdf:RDF>
  </metadata>
  <g
     inkscape:label="Layer 1"
     inkscape:groupmode="layer"
     id="layer1"
     transform="translate(0,-275)">
    <g
       style="display:inline;opacity:1"
       id="g4886-6-1-5-6"
       transform="matrix(0.99374193,0,0,0.99374193,33.352628,192.6715)"
       inkscape:export-filename="C:\Users\funfu\Documents\0_Boardgame\Board-Game-USA\images\sq\cat_tra_sq.png"
       inkscape:export-xdpi="96"
       inkscape:export-ydpi="96">
      <g
         id="g5049-9-6-1"
         transform="matrix(3.8958104,0,0,3.8958104,151.12102,-117.63147)">
        <path
           inkscape:connector-curvature="0"
           id="path4990-9-7-2"
           d="m -46.759611,51.881763 0.948598,0.87986 0.921103,-0.893607 0.728633,0.632398 -0.907355,0.962346 2.557091,2.570838 -0.701138,0.701138 -2.570838,-2.598334 -0.921103,0.93485 -0.673642,-0.68739 0.866112,-0.907354 -0.893607,-0.948598 z"
           style="fill:#007ae5;fill-opacity:1;stroke:none;stroke-width:0.0544385px;stroke-linecap:butt;stroke-linejoin:miter;stroke-opacity:1" />
        <path
           sodipodi:nodetypes="cccccc"
           inkscape:connector-curvature="0"
           id="path4996-9-6-9"
           d="m -46.237195,56.501023 3.821888,-3.794392 c -0.192359,-0.68725 0.421267,-0.348701 0.632399,-0.522416 -0.09761,0.267396 0.05245,0.885461 -0.508669,0.618651 0.04124,-0.05499 -3.794392,3.863131 -3.794392,3.863131 -0.06859,0.06743 -0.24436,-0.03751 -0.151226,-0.164974 z"
           style="fill:#007ae5;fill-opacity:1;stroke:#007ae5;stroke-width:0.0544385px;stroke-linecap:butt;stroke-linejoin:miter;stroke-opacity:1" />
        <path
           sodipodi:nodetypes="cscccc"
           inkscape:connector-curvature="0"
           id="path4998-1-4-3"
           d="m -43.405148,52.864731 0.274956,0.268082 c 0.06437,0.06276 0.01141,0.142061 0.06186,0.213091 l -0.350569,0.302451 c -0.230986,0.0081 -0.481039,-0.212011 -0.226839,-0.536164 z"
           style="fill:#007ae5;fill-opacity:1;stroke:#007ae5;stroke-width:0.0544385px;stroke-linecap:butt;stroke-linejoin:miter;stroke-opacity:1" />
        <path
           sodipodi:nodetypes="cscccc"
           inkscape:connector-curvature="0"
           id="path4998-9-3-2-59"
           d="m -42.462089,53.79245 -0.268082,-0.274956 c -0.06276,-0.06437 -0.142061,-0.01141 -0.213091,-0.06186 l -0.302451,0.350569 c -0.0081,0.230986 0.212011,0.481039 0.536164,0.226839 z"
           style="fill:#007ae5;fill-opacity:1;stroke:#007ae5;stroke-width:0.0544385px;stroke-linecap:butt;stroke-linejoin:miter;stroke-opacity:1" />
        <path
           sodipodi:nodetypes="cscccc"
           inkscape:connector-curvature="0"
           id="path4998-2-3-2-0"
           d="m -42.85664,52.308811 0.274956,0.268082 c 0.06437,0.06276 0.01141,0.142061 0.06186,0.213091 l -0.350569,0.302451 c -0.230986,0.0081 -0.481039,-0.212011 -0.226839,-0.536164 z"
           style="fill:#007ae5;fill-opacity:1;stroke:#007ae5;stroke-width:0.0544385px;stroke-linecap:butt;stroke-linejoin:miter;stroke-opacity:1" />
        <path
           sodipodi:nodetypes="cscccc"
           inkscape:connector-curvature="0"
           id="path4998-9-4-3-3-2"
           d="m -41.913581,53.23653 -0.268082,-0.274956 c -0.06276,-0.06437 -0.142061,-0.01141 -0.213091,-0.06186 l -0.302451,0.350569 c -0.0081,0.230986 0.212011,0.481039 0.536164,0.226839 z"
           style="fill:#007ae5;fill-opacity:1;stroke:#007ae5;stroke-width:0.0544385px;stroke-linecap:butt;stroke-linejoin:miter;stroke-opacity:1" />
        <path
           sodipodi:nodetypes="cscccc"
           inkscape:connector-curvature="0"
           id="path4998-7-8-2-4"
           d="m -43.977086,53.436131 0.274956,0.268082 c 0.06437,0.06276 0.01141,0.142061 0.06186,0.213091 l -0.350569,0.302451 c -0.230986,0.0081 -0.481039,-0.212011 -0.226839,-0.536164 z"
           style="fill:#007ae5;fill-opacity:1;stroke:#007ae5;stroke-width:0.0544385px;stroke-linecap:butt;stroke-linejoin:miter;stroke-opacity:1" />
        <path
           sodipodi:nodetypes="cscccc"
           inkscape:connector-curvature="0"
           id="path4998-9-2-8-1-1"
           d="m -43.034027,54.36385 -0.268082,-0.274956 c -0.06276,-0.06437 -0.142061,-0.01141 -0.213091,-0.06186 l -0.302451,0.350569 c -0.0081,0.230986 0.212011,0.481039 0.536164,0.226839 z"
           style="fill:#007ae5;fill-opacity:1;stroke:#007ae5;stroke-width:0.0544385px;stroke-linecap:butt;stroke-linejoin:miter;stroke-opacity:1" />
      </g>
    </g>
  </g>
</svg>
