<?xml version="1.0" encoding="UTF-8" standalone="no"?>
<!-- Created with Inkscape (http://www.inkscape.org/) -->

<svg
   xmlns:dc="http://purl.org/dc/elements/1.1/"
   xmlns:cc="http://creativecommons.org/ns#"
   xmlns:rdf="http://www.w3.org/1999/02/22-rdf-syntax-ns#"
   xmlns:svg="http://www.w3.org/2000/svg"
   xmlns="http://www.w3.org/2000/svg"
   xmlns:sodipodi="http://sodipodi.sourceforge.net/DTD/sodipodi-0.dtd"
   xmlns:inkscape="http://www.inkscape.org/namespaces/inkscape"
   width="22mm"
   height="22mm"
   viewBox="0 0 22 22"
   version="1.1"
   id="svg21561"
   inkscape:version="0.92.3 (2405546, 2018-03-11)"
   sodipodi:docname="cat_glo_svg_red.svg">
  <defs
     id="defs21555" />
  <sodipodi:namedview
     id="base"
     pagecolor="#ffffff"
     bordercolor="#666666"
     borderopacity="1.0"
     inkscape:pageopacity="0.0"
     inkscape:pageshadow="2"
     inkscape:zoom="5.6568543"
     inkscape:cx="20.363869"
     inkscape:cy="39.605056"
     inkscape:document-units="mm"
     inkscape:current-layer="layer1"
     showgrid="false"
     inkscape:window-width="1240"
     inkscape:window-height="1057"
     inkscape:window-x="672"
     inkscape:window-y="0"
     inkscape:window-maximized="0"
     showguides="true"
     inkscape:guide-bbox="true">
    <sodipodi:guide
       position="1.1875244,21.999691"
       orientation="0,1"
       id="guide26082"
       inkscape:locked="false" />
    <sodipodi:guide
       position="0,22.106145"
       orientation="1,0"
       id="guide26084"
       inkscape:locked="false" />
    <sodipodi:guide
       position="13.080339,0"
       orientation="0,1"
       id="guide26088"
       inkscape:locked="false" />
    <sodipodi:guide
       position="21.999691,9.8908693"
       orientation="1,0"
       id="guide26090"
       inkscape:locked="false" />
  </sodipodi:namedview>
  <metadata
     id="metadata21558">
    <rdf:RDF>
      <cc:Work
         rdf:about="">
        <dc:format>image/svg+xml</dc:format>
        <dc:type
           rdf:resource="http://purl.org/dc/dcmitype/StillImage" />
        <dc:title></dc:title>
      </cc:Work>
    </rdf:RDF>
  </metadata>
  <g
     inkscape:label="Layer 1"
     inkscape:groupmode="layer"
     id="layer1"
     transform="translate(0,-275)">
    <path
       style="display:inline;opacity:1;fill:#e50000;fill-opacity:1;stroke:none;stroke-width:0.18610157;stroke-linecap:round;stroke-linejoin:round;stroke-miterlimit:4;stroke-dasharray:none;stroke-dashoffset:3;stroke-opacity:1;paint-order:normal"
       d="m 11.116187,275.00074 a 11.000033,11.000033 0 0 0 -10.93578098,9.01541 11.000033,11.000033 0 0 0 8.78198008,12.79368 11.000033,11.000033 0 0 0 12.8370009,-8.71859 l 0.039,-0.21419 a 11.000033,11.000033 0 0 0 -8.9082,-12.70617 11.000033,11.000033 0 0 0 -1.814301,-0.17014 z m -1.0985,2.51524 v 2.36735 l -1.865201,0.024 c 0.3816001,-0.85712 0.7391,-1.72032 1.865201,-2.39134 z m 1.8211,0 c 1.126,0.67102 1.4836,1.53422 1.8652,2.39134 l -1.8652,-0.024 z m -4.7983008,0.56191 c -0.4151001,0.59278 -0.6766002,1.20482 -0.8369001,1.82943 l -1.6620001,-0.0121 c 0.3819001,-0.49175 1.0344999,-1.3051 2.4989002,-1.81738 z m 7.7755008,0 c 1.4645,0.51227 2.117,1.32563 2.4989,1.81738 l -1.662,0.0121 c -0.1602,-0.62461 -0.4218,-1.23665 -0.8369,-1.82943 z m -4.7983,3.71255 v 3.28206 l -2.9652009,0.0718 c 0.023,-0.98067 0.1140999,-2.42631 0.5260998,-3.34779 z m 1.8211,0 2.4391,0.006 c 0.4119,0.92149 0.5026,2.36713 0.5261,3.3478 l -2.9652,-0.0718 z m -8.7786811,0.0101 h 2.4855802 c -0.309,1.18644 -0.3958,2.25229 -0.3382002,3.34804 l -3.0773799,-0.0169 c 0,-0.62496 0.171,-2.04785 0.9299999,-3.3311 z m 13.2505811,0 h 2.4857 c 0.7591,1.28327 0.9333,2.70614 0.93,3.33111 l -3.0775,0.0169 c 0.058,-1.09573 -0.029,-2.16159 -0.3382,-3.34802 z M 5.2074859,286.8519 c -0.058,1.09573 0.029,2.16159 0.3382002,3.34802 H 3.0601059 C 2.301106,288.91667 2.126906,287.49378 2.130106,286.86882 Z m 1.8450002,0.004 2.9652009,0.0718 v 3.28208 l -2.4391011,-0.006 C 7.166586,289.2823 7.0758861,287.83666 7.0524861,286.85599 Z m 9.5964009,0.0436 3.0775,0.0169 c 0,0.62496 -0.1709,2.04785 -0.93,3.3311 h -2.4857 c 0.309,-1.18644 0.3959,-2.25229 0.3382,-3.34802 z m -1.8449,0.004 c -0.024,0.98067 -0.1142,2.42629 -0.5261,3.34778 l -2.4391,0.006 v -3.28207 z m -8.6004009,5.18905 c 0.1602999,0.62462 0.4218,1.23667 0.8369001,1.82944 C 5.5760859,293.4097 4.9234861,292.59635 4.541586,292.1046 Z m 1.9488999,1.2e-4 1.865201,0.0239 v 2.36735 C 8.891586,293.8129 8.5340861,292.94984 8.152486,292.0927 Z m 5.551501,0.0477 c -0.3816,0.85714 -0.7392,1.72033 -1.8652,2.39136 v -2.36747 z m 1.9489,0 1.662,0.0119 c -0.3819,0.49177 -1.0344,1.30511 -2.4989,1.8174 0.4151,-0.59278 0.6767,-1.20471 0.8369,-1.82932 z"
       id="path4925-3-5"
       inkscape:connector-curvature="0"
       inkscape:export-filename="C:\Users\funfu\Pictures\Boardgame\cat_glo.png"
       inkscape:export-xdpi="96"
       inkscape:export-ydpi="96" />
  </g>
</svg>
