<?xml version="1.0" encoding="UTF-8" standalone="no"?>
<!-- Created with Inkscape (http://www.inkscape.org/) -->

<svg
   xmlns:dc="http://purl.org/dc/elements/1.1/"
   xmlns:cc="http://creativecommons.org/ns#"
   xmlns:rdf="http://www.w3.org/1999/02/22-rdf-syntax-ns#"
   xmlns:svg="http://www.w3.org/2000/svg"
   xmlns="http://www.w3.org/2000/svg"
   xmlns:sodipodi="http://sodipodi.sourceforge.net/DTD/sodipodi-0.dtd"
   xmlns:inkscape="http://www.inkscape.org/namespaces/inkscape"
   width="22mm"
   height="22mm"
   viewBox="0 0 22 22"
   version="1.1"
   id="svg21561"
   inkscape:version="0.92.3 (2405546, 2018-03-11)"
   sodipodi:docname="cat_job_svg_red.svg">
  <defs
     id="defs21555" />
  <sodipodi:namedview
     id="base"
     pagecolor="#ffffff"
     bordercolor="#666666"
     borderopacity="1.0"
     inkscape:pageopacity="0.0"
     inkscape:pageshadow="2"
     inkscape:zoom="5.6568543"
     inkscape:cx="20.363869"
     inkscape:cy="39.605056"
     inkscape:document-units="mm"
     inkscape:current-layer="layer1"
     showgrid="false"
     inkscape:window-width="1240"
     inkscape:window-height="1057"
     inkscape:window-x="672"
     inkscape:window-y="0"
     inkscape:window-maximized="0"
     showguides="true"
     inkscape:guide-bbox="true">
    <sodipodi:guide
       position="1.1875244,21.999691"
       orientation="0,1"
       id="guide26082"
       inkscape:locked="false" />
    <sodipodi:guide
       position="0,22.106145"
       orientation="1,0"
       id="guide26084"
       inkscape:locked="false" />
    <sodipodi:guide
       position="13.080339,0"
       orientation="0,1"
       id="guide26088"
       inkscape:locked="false" />
    <sodipodi:guide
       position="21.999691,9.8908693"
       orientation="1,0"
       id="guide26090"
       inkscape:locked="false" />
  </sodipodi:namedview>
  <metadata
     id="metadata21558">
    <rdf:RDF>
      <cc:Work
         rdf:about="">
        <dc:format>image/svg+xml</dc:format>
        <dc:type
           rdf:resource="http://purl.org/dc/dcmitype/StillImage" />
        <dc:title></dc:title>
      </cc:Work>
    </rdf:RDF>
  </metadata>
  <g
     inkscape:label="Layer 1"
     inkscape:groupmode="layer"
     id="layer1"
     transform="translate(0,-275)">
    <g
       id="g5094-2-8-4-0"
       transform="matrix(0.83381514,0,0,0.83381514,-202.93163,403.64977)"
       style="display:inline;opacity:1;fill:#e50000;fill-opacity:1;stroke:#e50000;stroke-opacity:1"
       inkscape:export-filename="C:\Users\funfu\Documents\0_Boardgame\Board-Game-USA\images\sq\cat_job_sq.png"
       inkscape:export-xdpi="96"
       inkscape:export-ydpi="96">
      <path
         sodipodi:nodetypes="cccccccscc"
         inkscape:connector-curvature="0"
         id="path5069-4-6-02-1"
         d="m 255.91218,-151.16344 c 3.01262,0.28106 4.35371,1.96711 3.94223,3.34087 0.1789,0.91612 2.27999,2.10893 2.53906,2.20498 0.85217,-1.13644 2.19098,-0.56597 1.73725,0.8018 0.0114,0.79507 1.47042,1.30063 2.27179,1.93771 1.06908,-0.24581 3.46798,-3.11387 3.20724,-3.4745 -0.025,-0.95703 -1.46931,-1.55924 -2.20498,-2.33861 -2.83601,0.97527 -1.0539,-1.25595 -2.87314,-2.40542 -1.469,-0.92817 -1.92566,-0.66343 -2.93997,-1.06909 -0.6407,-1.20633 -4.33246,-1.55235 -5.67948,1.00226 z"
         style="fill:#e50000;fill-opacity:1;stroke:#e50000;stroke-width:0.26458332px;stroke-linecap:butt;stroke-linejoin:miter;stroke-opacity:1" />
      <path
         sodipodi:nodetypes="ccsssc"
         inkscape:connector-curvature="0"
         id="path5071-0-8-6-2"
         d="m 259.11942,-146.95394 2.60588,2.13815 -11.96032,15.23437 c -0.51209,0.65227 -0.44705,1.23236 -2.73951,-0.33409 -2.55406,-1.74521 -1.2132,-2.32312 -0.53454,-3.0736 z"
         style="fill:#e50000;fill-opacity:1;stroke:#e50000;stroke-width:0.26458332px;stroke-linecap:butt;stroke-linejoin:miter;stroke-opacity:1" />
      <path
         sodipodi:nodetypes="ccccccccccc"
         inkscape:connector-curvature="0"
         id="path5073-6-6-2-9"
         d="m 246.7582,-152.76705 2.53906,2.3386 0.0668,1.87089 -0.93544,1.1359 -1.73725,0.33408 -3.0736,-2.53906 c -0.67206,3.26259 1.83248,7.25335 6.41447,5.61266 l 2.53906,1.93771 2.20497,-2.40543 -2.20497,-2.27179 c 1.75594,-6.96191 -5.81312,-7.19409 -5.81312,-6.01356 z"
         style="fill:#e50000;fill-opacity:1;stroke:#e50000;stroke-width:0.26458332px;stroke-linecap:butt;stroke-linejoin:miter;stroke-opacity:1" />
      <path
         sodipodi:nodetypes="ccccccccccc"
         inkscape:connector-curvature="0"
         id="path5073-3-1-8-66-0"
         d="m 265.87195,-129.42887 -2.53906,-2.3386 -0.0668,-1.87089 0.93544,-1.1359 1.73725,-0.33408 3.0736,2.53906 c 0.67206,-3.26259 -1.83248,-7.25335 -6.41447,-5.61266 l -2.53906,-1.93771 -2.20497,2.40543 2.20497,2.27179 c -1.75594,6.96191 5.81312,7.19409 5.81312,6.01356 z"
         style="fill:#e50000;fill-opacity:1;stroke:#e50000;stroke-width:0.26458332px;stroke-linecap:butt;stroke-linejoin:miter;stroke-opacity:1" />
    </g>
  </g>
</svg>
